<?xml version="1.0" standalone="no"?>
<!DOCTYPE svg PUBLIC "-//W3C//DTD SVG 20010904//EN"
 "http://www.w3.org/TR/2001/REC-SVG-20010904/DTD/svg10.dtd">
<svg version="1.0" xmlns="http://www.w3.org/2000/svg"
 width="97.000000pt" height="100.000000pt" viewBox="0 0 97.000000 100.000000"
 preserveAspectRatio="xMidYMid meet">

<g transform="translate(0.000000,100.000000) scale(0.100000,-0.100000)"
fill="#000000" stroke="none">
<path d="M597 888 c-60 -61 -105 -113 -99 -117 5 -3 19 -22 31 -41 42 -71 21
-160 -52 -214 -44 -33 -132 -29 -180 7 l-36 27 -131 -130 -130 -129 0 -146 0
-145 485 0 485 0 0 500 0 500 -132 -1 -133 0 -108 -111z m63 -100 c75 -52 99
-131 61 -205 -33 -66 -106 -106 -136 -76 -25 24 -16 42 31 66 17 9 37 30 44
47 11 27 11 37 -4 67 -10 21 -28 39 -46 46 -35 13 -44 31 -30 58 14 25 40 24
80 -3z m-129 -359 c60 -18 98 -65 111 -137 13 -71 2 -112 -31 -112 -27 0 -35
16 -41 84 -7 81 -32 100 -141 105 -168 7 -219 -19 -219 -113 0 -62 -10 -79
-41 -74 -22 3 -24 8 -27 67 -2 35 2 77 8 91 15 36 57 75 95 88 41 14 239 15
286 1z m230 -22 c48 -32 69 -79 69 -155 0 -49 -4 -64 -16 -69 -32 -12 -49 11
-54 74 -6 66 -16 85 -60 103 -29 12 -41 46 -23 63 13 14 51 6 84 -16z"/>
<path d="M373 664 c-29 -29 -53 -58 -53 -64 0 -5 14 -17 31 -25 80 -42 164 50
113 123 -8 12 -21 22 -27 21 -7 0 -36 -25 -64 -55z"/>
</g>
</svg>
